<?xml version="1.0" standalone="no"?>
<!DOCTYPE svg PUBLIC "-//W3C//DTD SVG 1.1//EN" "http://www.w3.org/Graphics/SVG/1.1/DTD/svg11.dtd" >
<svg xmlns="http://www.w3.org/2000/svg">
<metadata>
Created by FontForge 20120731 at Fri Jun 16 22:25:11 2017
 By admin
</metadata>
<defs>
<font id="sportfont" horiz-adv-x="1024" >
  <font-face 
    font-family="sportfont"
    font-weight="500"
    font-stretch="normal"
    units-per-em="1024"
    panose-1="2 0 6 3 0 0 0 0 0 0"
    ascent="896"
    descent="-128"
    x-height="792"
    bbox="-0.142857 -128.143 1058 896"
    underline-thickness="0"
    underline-position="0"
    unicode-range="U+0078-E9D1"
  />
<missing-glyph 
 />
    <glyph glyph-name=".notdef" 
 />
    <glyph glyph-name=".notdef" 
 />
    <glyph glyph-name=".null" horiz-adv-x="0" 
 />
    <glyph glyph-name="nonmarkingreturn" horiz-adv-x="341" 
 />
    <glyph glyph-name="x" unicode="x" horiz-adv-x="1001" 
d="M281 543q-27 -1 -53 -1h-83q-18 0 -36.5 -6t-32.5 -18.5t-23 -32t-9 -45.5v-76h912v41q0 16 -0.5 30t-0.5 18q0 13 -5 29t-17 29.5t-31.5 22.5t-49.5 9h-133v-97h-438v97zM955 310v-52q0 -23 0.5 -52t0.5 -58t-10.5 -47.5t-26 -30t-33 -16t-31.5 -4.5q-14 -1 -29.5 -0.5
t-29.5 0.5h-32l-45 128h-439l-44 -128h-29h-34q-20 0 -45 1q-25 0 -41 9.5t-25.5 23t-13.5 29.5t-4 30v167h911zM163 247q-12 0 -21 -8.5t-9 -21.5t9 -21.5t21 -8.5q13 0 22 8.5t9 21.5t-9 21.5t-22 8.5zM316 123q-8 -26 -14 -48q-5 -19 -10.5 -37t-7.5 -25t-3 -15t1 -14.5
t9.5 -10.5t21.5 -4h37h67h81h80h64h36q23 0 34 12t2 38q-5 13 -9.5 30.5t-9.5 34.5q-5 19 -11 39h-368zM336 498v228q0 11 2.5 23t10 21.5t20.5 15.5t34 6h188q31 0 51.5 -14.5t20.5 -52.5v-227h-327z" />
    <glyph glyph-name="cards" unicode="&#xe605;" 
d="M639 266.5q0 -14.5 10.5 -24.5t25 -10t24.5 10t10 24.5t-10 24.5t-24.5 10t-25 -10t-10.5 -24.5zM808 591q-325 125 -351 136q-20 8 -31 4t-20 -20l-27 -62h-76q-56 0 -83 -25t-27 -78v-56l1 -34v-385q0 -16 12 -27t29 -11h497q32 0 43.5 13.5t11.5 49.5v103h-180
q-11 0 -19 7.5t-8 18.5v77q0 10 8 17.5t19 7.5h180v102q0 34 -12 49.5t-46 15.5h-208.5h-198.5q-28 0 -48.5 12.5t-20.5 35.5q0 24 22 42.5t48 18.5h37l-31 -71q-2 -5 0.5 -9t7.5 -5l45 1q14 2 19 14l44 104q7 14 17 17q13 4 26 -1l239 -93q12 -4 15 -5.5t6.5 -6t2.5 -9.5
t-5 -15q-4 -9 9 -12l37 -14q11 -7 16 5l20 44q6 19 1.5 28t-21.5 16z" />
    <glyph glyph-name="location-solid" unicode="&#xe602;" 
d="M510 -128q-13 18 -34.5 49.5t-76 119.5t-96.5 165.5t-76.5 165.5t-34.5 142q0 61 11 112.5t29.5 88t42 66.5t50 48t53 32t50 20t42 10t29.5 4l11 1q7 0 18.5 -1t45 -9t64 -21t67.5 -42t63.5 -67t45 -100.5t18.5 -139.5q0 -55 -33 -142t-80.5 -171t-95 -160.5
t-80.5 -123.5l-33 -47v0zM512 704q-53 0 -90.5 -37.5t-37.5 -90.5t37.5 -90.5t90.5 -37.5t90.5 37.5t37.5 90.5t-37.5 90.5t-90.5 37.5z" />
    <glyph glyph-name="qrcode" unicode="&#xe601;" 
d="M152 772h305q9 0 14.5 -6t7.5 -18.5t2.5 -20.5t0 -25.5t-0.5 -22.5v-169q0 -6 0.5 -21.5t0 -24t-1.5 -19.5t-5.5 -17.5t-11.5 -9.5t-21 -3.5t-33.5 0.5t-23.5 1h-162q-6 0 -23 -0.5t-25.5 -0.5t-20.5 2t-18 7.5t-7 15.5v309q6 18 23 23zM194 703v-220h220v223h-219
q-1 0 -1 -3zM562 772h305q20 -7 23 -27v-301q-5 -22 -21 -27q-9 -2 -22 -2.5t-30.5 0.5t-24.5 1h-157q-7 0 -24.5 -1t-31 -1t-21.5 3t-12.5 9.5t-6.5 19t-2 21.5t0.5 25.5t0.5 22.5v158q0 8 -0.5 25.5t-0.5 27t2 21.5t7.5 18t15.5 7zM604 703v-220h220v223h-219q-2 0 -1 -3z
M294 638q23 5 39 -8t17 -35q0 -27 -22 -40t-45 -2q-16 9 -21.5 28t3.5 36.5t29 20.5zM704 638q39 8 51 -26q10 -30 -10 -51q-16 -16 -41 -12q-22 4 -30.5 24t0 40.5t30.5 24.5zM455 0h-302q-19 6 -24 25v308q6 19 20 23q9 2 22 2.5t30.5 -0.5t24.5 -1h156q7 0 24.5 1t31 0.5
t22.5 -2.5q8 -3 13 -9.5t6.5 -18.5t2 -21t0 -25.5t-0.5 -23.5v-162q0 -6 0.5 -24.5t0 -26.5t-2.5 -20t-8 -18t-16 -7zM194 287v-220h220v223h-219q-1 0 -1 -3zM890 329v-86q-1 -7 -0.5 -46t-0.5 -47h-218v50q-5 2 -33 1.5t-34 -0.5q-2 -17 -1.5 -99.5t0.5 -101.5h-40
q-10 2 -16 8.5t-8 18.5t-2 21.5t0.5 27t0.5 24.5v158q0 7 -1 25.5t-0.5 32t2.5 21.5q2 5 4.5 8.5t7 5.5t8 3.5t11 2t11.5 0.5h13.5h12.5h148v-136h69q0 12 -0.5 68.5t1.5 67.5q17 0 31 -0.5t23.5 -7t10.5 -20.5zM300 224q25 2 40.5 -17.5t6.5 -45.5q-9 -23 -33.5 -27
t-42.5 12.5t-10.5 45t39.5 32.5zM745 0h-74v41t1 39h73v-80zM890 80v-52q-4 -21 -24 -28h-52q0 8 -0.5 41t1.5 39h75z" />
    <glyph glyph-name="round-check" unicode="&#xe657;" 
d="M512 830q-91 0 -173.5 -35.5t-142 -95t-95 -142t-35.5 -173.5t35.5 -173.5t95 -142t142 -95t173.5 -35.5t173.5 35.5t142 95t95 142t35.5 173.5t-35.5 173.5t-95 142t-142 95t-173.5 35.5zM727 458l-256 -259v-1v0q-2 -1 -7 -4q-1 -1 -2 -1.5t-2 -1.5q-6 -2 -12 -2t-12 2
q-1 1 -2 1.5t-1 1.5q-6 3 -7 4v1h-1l-126 129q-9 10 -9 23t9.5 22.5t23 9t22.5 -9.5l103 -106l234 236q9 9 22.5 9t22.5 -9t9.5 -22.5t-9.5 -22.5z" />
    <glyph glyph-name="telephone" unicode="&#xe60f;" 
d="M735 894h-446q-40 0 -68 -28t-28 -68v-828q0 -40 28 -68t68 -28h446q39 0 67.5 28t28.5 68v828q0 40 -28.5 68t-67.5 28zM385 846h254v-32h-254v32zM512 -62q-26 0 -45 18.5t-19 45t19 45t45 18.5t45 -18.5t19 -45t-19 -45t-45 -18.5zM767 129h-510v637h510v-637z" />
    <glyph glyph-name="round" unicode="&#xe6d7;" 
d="M512 -64q-185 0 -316.5 131.5t-131.5 316.5t131.5 316.5t316.5 131.5t316.5 -131.5t131.5 -316.5t-131.5 -316.5t-316.5 -131.5zM512 768q-159 0 -271.5 -112.5t-112.5 -271.5t112.5 -271.5t271.5 -112.5t271.5 112.5t112.5 271.5t-112.5 271.5t-271.5 112.5z" />
    <glyph glyph-name="membercenter" unicode="&#xe611;" 
d="M660 363q50 37 78.5 91.5t28.5 118.5q0 107 -76.5 183.5t-184 76.5t-183.5 -76.5t-76 -183.5q0 -64 29 -119.5t79 -91.5q-117 -47 -190 -151.5t-73 -234.5q0 -16 11.5 -27.5t27.5 -11.5t27.5 11.5t11.5 27.5q0 91 45 168.5t122.5 123t169.5 45.5h2.5h1.5h1.5h1.5
q91 0 168.5 -45.5t122.5 -123t45 -168.5q0 -16 11.5 -27.5t27.5 -11.5t27.5 11.5t11.5 27.5q0 131 -74.5 236.5t-193.5 150.5zM325 572.5q0 75.5 53 129t128.5 53.5t129 -53.5t53.5 -129t-53.5 -128.5t-129 -53t-128.5 53t-53 128.5z" />
    <glyph glyph-name="location" unicode="&#x34b1;" 
d="M839 255q55 91 55 197q0 104 -51.5 192t-139 139t-191.5 51t-192 -51t-139 -139t-51 -192q0 -106 55 -196q3 -11 11 -19l2 -2q38 -54 92 -93l188 -191q18 -17 43 -10q19 -2 33 12l188 195q48 37 83 87l3 3q8 7 11 17zM512 570q49 0 83.5 -34.5t34.5 -83.5t-34.5 -84
t-83.5 -35t-84 35t-35 84t35 83.5t84 34.5z" />
    <glyph glyph-name="tabletennis" unicode="&#xe60e;" 
d="M133 498q-1 -4 -1 -6q-15 -128 42 -241l-148 -129l-2 -2q-16 -16 -13 -39q2 -20 16 -35l125 -125v0q15 -15 34 -17h6q20 0 34 13q1 1 1 2l133 150q52 -26 109 -37q67 -13 134 -4h1.5h1.5zM937 602q-31 78 -91.5 138.5t-139.5 92.5q-75 31 -157.5 31t-157.5 -31
q-79 -32 -139 -92q-51 -51 -82 -116q-15 -33 -25 -67l521 -517q34 10 66 25q63 31 113 81q61 61 92 139q31 76 31 158t-31 158zM800 392q-37 0 -63 26t-26 63t26 63.5t63 26.5t63 -26.5t26 -63.5t-26 -63t-63 -26z" />
    <glyph glyph-name="swimming" unicode="&#xe627;" 
d="M701 596q0 -62 43.5 -105.5t105 -43.5t105 43.5t43.5 105.5t-43.5 105.5t-105 43.5t-105 -43.5t-43.5 -105.5zM66 269q44 -19 93 -30q166 -36 341 34q107 42 215 50q28 2 56 2l-132 229q-3 6 -8 11q-2 2 -5 4l-200 163q-14 12 -32 5l-305 -121q-12 -5 -17.5 -17t-0.5 -24
t16.5 -17t23.5 -1q7 -1 13 1l252 79l119 -112l-410 -236q-12 -7 -19 -20zM1001 207v0q-49 33 -136 49q-75 14 -157 6q-101 -10 -208 -52q-174 -70 -325 -43q-76 13 -116 40v0v0q-8 5 -19 5q-13 0 -22 -9t-9 -22q0 -17 13 -26q52 -42 135 -64q63 -18 132 -18q13 0 26 1
q102 5 209 47q176 70 328 58q71 -6 115 -26q8 -5 17 -5q13 0 22.5 9t9.5 23q0 17 -15 27z" />
    <glyph glyph-name="location-hollow" unicode="&#xe604;" 
d="M512 896q-97 0 -179.5 -50.5t-130.5 -137.5t-48 -189q0 -57 33.5 -144t89 -181.5t100 -163.5t91.5 -135q16 -23 43.5 -23t44.5 23q47 66 91.5 135t100 163.5t89 181.5t33.5 144q0 102 -48 189t-130.5 137.5t-179.5 50.5zM537 -16q-10 -13 -25.5 -13t-24.5 13
q-125 181 -196.5 323.5t-71.5 211.5q0 127 86 217.5t207 90.5t207 -90.5t86 -217.5q0 -69 -71.5 -211.5t-196.5 -323.5zM512 703q-63 0 -107.5 -47t-44.5 -113.5t44.5 -113.5t107.5 -47t107.5 47t44.5 113.5t-44.5 113.5t-107.5 47zM512 451q-36 0 -61.5 27t-25.5 65
t25.5 64.5t61.5 26.5t61.5 -26.5t25.5 -64.5t-25.5 -65t-61.5 -27z" />
    <glyph glyph-name="plan1" unicode="&#xe623;" 
d="M527 -44q-91 0 -174 35.5t-143 95.5t-95.5 143t-35.5 173.5t35.5 173.5t95.5 143t143 95.5t174 35.5t173.5 -35.5t142.5 -95.5t95.5 -143t35.5 -173.5t-35.5 -173.5t-95.5 -143t-142.5 -95.5t-173.5 -35.5zM526.5 793q-105.5 0 -195 -52.5t-141.5 -142t-52 -195t52 -195
t141.5 -142t195 -52.5t195.5 52.5t142 142t52 195t-52 195t-142 142t-195.5 52.5zM527 374q-12 0 -20.5 8.5t-8.5 20.5v245q0 12 8.5 20.5t20.5 8.5t20.5 -8.5t8.5 -20.5v-245q0 -12 -8.5 -20.5t-20.5 -8.5zM752 187q-11 0 -19 7l-225 187q-9 8 -10 20t6.5 21t19.5 10.5
t21 -6.5l225 -187q9 -8 10.5 -20t-6.5 -21q-9 -11 -22 -11z" />
    <glyph glyph-name="ticket3" unicode="&#xe6bf;" 
d="M53 520q0 27 9 38.5t39 11.5h128v-499h-55q-22 0 -43.5 0.5t-29.5 0.5q-26 -1 -37 9t-11 38v144q0 11 3.5 16.5t14.5 7.5q4 0 11 3t13.5 9.5t11.5 17t5 25.5q0 22 -12 35t-26 15q-11 2 -16 6.5t-5 15.5v106zM135 615v25q0 20 15.5 37t33.5 17h138v-79h-187zM947 398
q-8 -2 -11.5 -8.5t-3.5 -14.5t3.5 -15.5t11.5 -10.5t12.5 -11.5t5 -18.5t-2.5 -19t-9 -13q-20 -12 -20 -27t20 -30q4 -3 7.5 -11t3.5 -16t-4 -14t-14 -6h-53q-6 0 -6.5 1t1.5 3.5t5 5.5t5 7q5 14 0 24t-17 17q-8 4 -11.5 12.5t-3 17.5t3.5 16t9 10q8 3 12 11t4 17t-3 16
t-9 10q-8 4 -12.5 12t-4.5 18t4 19.5t13 15.5q6 4 10 11t4.5 15t-3 15.5t-12.5 12.5q-10 5 -14.5 14.5t-4.5 19.5t4.5 19t12.5 14q17 9 18.5 24.5t-2.5 28.5q-3 10 -12 18t-23 8h-479v78h561q7 0 12 -5t6.5 -12t-1 -14.5t-9.5 -12.5q-6 -5 -10.5 -13t-5 -16t2.5 -16.5
t11 -12.5q11 -6 16.5 -16.5t5.5 -21t-5.5 -19.5t-15.5 -13q-11 -4 -16 -11.5t-5 -16.5t4 -17.5t14 -14.5t14.5 -16t4 -20t-5 -18.5t-13.5 -9.5v0zM818 413q-12 -3 -18.5 -11.5t-7 -17.5t5 -18t16.5 -13q10 -4 15 -11.5t5.5 -16.5t-3.5 -17t-12 -12q-25 -12 -26 -29t19 -27
q9 -4 14.5 -12.5t6 -18t-3.5 -17t-13 -10.5q-12 -3 -18.5 -11t-7 -17t5 -18t17.5 -15q8 -4 11.5 -12.5t2.5 -16.5t-5.5 -14.5t-12.5 -6.5h-521v499h527q8 0 12.5 -6.5t5 -14.5t-3.5 -16t-13 -11t-14.5 -10t-6.5 -15.5t4 -16.5t17 -12q9 -4 14.5 -12t6 -16.5t-4 -16
t-14.5 -10.5v0zM578 346q-5 0 -10.5 1t-2.5 6q1 2 9.5 14t19 25.5t19.5 25.5t11 15q5 8 -6 19q-2 2 -8 6t-11 6q-8 3 -11.5 1t-8.5 -9q-2 -3 -10 -14q-9 -12 -17 -25q-9 -13 -17 -23q-7 -11 -8 -13q-2 -4 -7.5 -3t-7.5 5q-1 2 -9 11.5t-17 21.5t-17.5 22.5t-11.5 14.5
q-9 17 -19 11q-7 -4 -12.5 -8.5t-10.5 -7.5q-10 -7 -3 -18q17 -20 30 -37q11 -14 21 -27t12 -15q1 -2 0 -3t-4 -1h-12q-5 0 -14.5 -0.5t-17.5 0.5q-8 0 -13 -3.5t-3 -9.5q1 -4 1 -12v-12q0 -5 3 -5.5t7 -0.5h58q12 0 12 -5v-19q0 -5 -2 -5h-67q-6 1 -8 -3t-3 -9t0 -9.5
t1 -7.5q0 -13 13 -13h60q5 0 6 -1.5t1 -6.5q1 -5 0.5 -18t-0.5 -17q0 -11 13 -11h32q8 0 8 5v40q0 10 9 10h9q7 0 15.5 0.5t16.5 0.5h13q14 0 14 10v22q0 9 -10 9h-58q-10 -2 -10 4q0 3 -0.5 7.5t-0.5 8.5t3.5 6t7.5 2h59q10 0 10 7v24q0 4 -3.5 7.5t-8.5 3.5h-34zM578 346z
" />
    <glyph glyph-name="trainee2" unicode="&#xe615;" 
d="M512 -128q-104 0 -199 40.5t-163.5 109t-109 163.5t-40.5 199t40.5 199t109 163.5t163.5 109t199 40.5t199 -40.5t163.5 -109t109 -163.5t40.5 -199t-40.5 -199t-109 -163.5t-163.5 -109t-199 -40.5zM512 862q-97 0 -185.5 -38t-152.5 -102t-102 -152.5t-38 -185.5
t38 -185.5t102 -152.5t152.5 -102t185.5 -38t185.5 38t152.5 102t102 152.5t38 185.5t-38 185.5t-102 152.5t-152.5 102t-185.5 38zM878 40q-14 7 -125 39t-124 41q-19 11 -19 113l19 17q4 43 12.5 59t18 39.5t14.5 39.5l6 16q19 13 19 38q0 10 -5 19.5t-10 13.5l-4 4
q7 68 7 114q0 73 -44.5 112.5t-127.5 39.5q-87 0 -139 -38t-52 -114q0 -13 1.5 -29.5t3.5 -30.5t4.5 -26.5t3.5 -19.5l2 -8q-19 -13 -19 -37q0 -11 4.5 -20.5t9.5 -13.5l5 -4q22 -69 38 -95q4 -7 7 -21.5t4 -26.5l1 -11l20 -17q1 -11 1.5 -27.5t-4 -47.5t-17.5 -38
q-12 -9 -119 -40t-120 -39q6 -7 16 -18t45.5 -39.5t74 -50t99.5 -38.5t125 -16q74 2 139 19.5t105.5 40t69.5 46.5t42 39t12 16z" />
    <glyph glyph-name="tips" unicode="&#xe63a;" 
d="M512 832q-122 0 -225 -60t-163 -163t-60 -225t60 -225t163 -163t225 -60t225 60t163 163t60 225t-60 225t-163 163t-225 60v0zM512 -8q-106 0 -196.5 52.5t-143 143t-52.5 196.5t52.5 196.5t143 143t196.5 52.5t196.5 -52.5t143 -143t52.5 -196.5t-52.5 -196.5t-143 -143
t-196.5 -52.5v0zM459 624h114v-124h-114v124zM459 461h114v-336h-114v336z" />
    <glyph glyph-name="call" unicode="&#xe613;" 
d="M512 787q82 0 157 -31q73 -31 128.5 -87t86.5 -128q32 -75 32 -157t-32 -157q-31 -73 -86.5 -128.5t-128.5 -86.5q-75 -32 -157 -32t-157 32q-72 31 -128 86.5t-87 128.5q-31 75 -31 157t31 157q31 72 87 128t128 87q75 31 157 31zM512 812q-116 0 -214.5 -57.5
t-156 -156t-57.5 -214.5t57.5 -215t156 -156t214.5 -57t215 57t156 156t57 215t-57 214.5t-156 156t-215 57.5v0zM463 328q9 -9 20.5 -18t19.5 -14l7 -5q1 -1 3.5 -2.5t10 -5.5t14.5 -5.5t16 -1t16 4.5q13 8 26 17t18 12.5t11.5 5.5t11 0.5t12.5 -5.5q27 -15 45.5 -29.5
t26 -24.5t12.5 -19.5t4 -14t-1 -7.5q-7 -27 -48 -41.5t-88 -2.5q-109 27 -187 105t-105 187q-12 47 2.5 88t41.5 48q3 0 7.5 1t14 -3.5t19.5 -12.5t24.5 -26.5t29.5 -44.5q5 -10 5 -17t-2 -11.5t-13 -21t-20 -30.5q-7 -14 -4.5 -27t8.5 -23l6 -10q17 -27 36 -46v0zM463 328z
" />
    <glyph glyph-name="team" unicode="&#xe7e3;" 
d="M607 786q-96 0 -163 -67.5t-67 -163.5q0 -64 33 -118.5t88 -84.5q-114 -35 -187 -132t-73 -220q0 -9 6.5 -15.5t15.5 -6.5t15.5 6.5t6.5 15.5q0 88 43.5 163t118 118.5t161.5 43.5h7q94 3 159.5 70t65.5 160q0 96 -67.5 163.5t-162.5 67.5v0zM607 369q-77 0 -132 54.5
t-55 131.5t55 132t132 55t131.5 -55t54.5 -132t-54.5 -131.5t-131.5 -54.5v0zM868 260q-7 7 -16 7t-15.5 -6.5t-6.5 -15.5t7 -16q95 -95 95 -229q0 -9 6 -15.5t15.5 -6.5t16 6.5t6.5 15.5q0 74 -28 141t-80 119v0zM374 364v0v0q0 9 -6.5 15.5t-15.5 6.5q-60 0 -102 45
t-42 109t42 109.5t102 45.5q9 0 15.5 6t6.5 15.5t-6.5 16t-15.5 6.5q-78 0 -133 -58.5t-55 -140.5q0 -54 25 -99.5t68 -71.5q-90 -32 -147 -114t-57 -185q0 -10 6.5 -16t15.5 -6t15.5 6t6.5 16q0 112 75 192t180 80q9 0 15.5 6t6.5 16v0zM374 364z" />
    <glyph glyph-name="plan2" unicode="&#xe621;" 
d="M512 829q-90 0 -172.5 -35t-142 -94.5t-94.5 -142t-35 -172.5t35 -172.5t94.5 -141.5t142 -94.5t172.5 -35.5t172.5 35.5t142 94.5t94.5 141.5t35 172.5t-35 172.5t-94.5 142t-142 94.5t-172.5 35zM512 -20q-110 0 -203.5 54t-147.5 147.5t-54 203.5t54 203.5
t147.5 147.5t203.5 54t203.5 -54t147.5 -147.5t54 -203.5t-54 -203.5t-147.5 -147.5t-203.5 -54zM801 404h-214q-5 21 -20 36t-36 20v214q0 8 -5.5 14t-13.5 6t-13.5 -6t-5.5 -14v-214q-26 -7 -42 -27.5t-16 -47.5q0 -32 22.5 -54.5t54.5 -22.5q27 0 47.5 16t27.5 42h214
q8 0 14 5.5t6 13.5t-6 13.5t-14 5.5zM512 346q-16 0 -27.5 11.5t-11.5 27.5t11.5 27.5t27.5 11.5t27.5 -11.5t11.5 -27.5t-11.5 -27.5t-27.5 -11.5z" />
    <glyph glyph-name="clubs" unicode="&#xe9d1;" 
d="M859 741q-42 -10 -87 -10q-78 0 -145 28.5t-103 76.5l-12 16l-13 -16q-36 -48 -102.5 -76.5t-145.5 -28.5q-44 0 -87 10l-18 4v-297q0 -223 166 -391q57 -57 122 -97q56 -34 78 -34q23 0 78 34q65 39 122 96q166 167 166 392v297zM847 448q0 -211 -156 -370
q-54 -54 -115 -91q-48 -29 -64 -30q-17 2 -64 31q-62 38 -116 93q-156 158 -156 367v259q37 -7 75 -7q80 0 149 27.5t112 75.5q42 -48 111.5 -75.5t148.5 -27.5q38 0 75 7v-259zM512 714q-28 -38 -80 -60.5t-114 -22.5q-35 0 -67 8v-207q0 -92 40 -173l398 373
q-57 3 -104 25t-73 57zM376 144l397 372v106l-447 -419q22 -31 50 -59zM512 55q10 0 37.5 14t65.5 45t72.5 72.5t59.5 105.5t26 135l-347 -326q28 -21 53 -33.5t33 -12.5z" />
    <glyph glyph-name="refundlabel1" unicode="&#xe689;" 
d="M509.5 835q-91.5 0 -174.5 -35.5t-143 -95.5t-95.5 -143t-35.5 -174t35.5 -174.5t95.5 -143.5t143 -95.5t174.5 -35.5t174.5 35.5t143 95.5t95.5 143.5t35.5 174.5t-35.5 174t-95.5 143t-143 95.5t-174.5 35.5zM509.5 -26q-112.5 0 -207.5 55t-150 150t-55 207.5
t55 207.5t150 150t207.5 55t207.5 -55t150 -150t55 -207.5t-55 -207.5t-150 -150t-207.5 -55zM496 219h231q21 0 23 -19q-2 -19 -23 -21h-225q-79 4 -132 46q-6 -2 -13 -6q-27 -25 -50 -36q-17 -6 -25 9q-8 21 8 29q57 21 59 59v103q0 19 -17 21h-39q-17 0 -17 19
q0 18 17 20h62q30 -2 32 -31v-118q4 -71 109 -75zM337 586q27 -27 62 -71q9 -19 -4 -30q-17 -8 -29 9q-27 34 -57 67q-16 13 -2 27q13 11 30 -2zM702 573v-127q-1 -28 -32 -30h-195v-136q0 -8 6 -4q32 18 57 39q17 11 31 -2q9 -18 -6 -31q-40 -30 -82 -48q-46 -15 -46 27
v310q-4 36 36 34h195q38 2 36 -32zM473 552v-21h191v21q0 17 -13 17h-163q-17 0 -15 -17zM473 452h178q13 -2 13 14v28h-191v-42zM550 401q17 -14 45 -37q14 -9 21 -13q25 15 58 48q13 13 28 0q12 -14 0 -29q-19 -19 -55 -46q33 -31 57 -59q14 -19 0 -31q-17 -11 -30 6
q-65 73 -149 128q-14 10 -4 27q13 15 29 6z" />
    <glyph glyph-name="opentime" unicode="&#xe619;" 
d="M510 833q91 0 173 -34.5t144 -96.5l2 -3q61 -62 95 -143t34 -172t-34.5 -173t-96.5 -144l-2 -1q-62 -62 -143 -96t-172 -34t-172.5 34.5t-143.5 96.5v0q-62 63 -96.5 144.5t-34.5 172.5q0 92 34.5 173.5t96.5 143.5v1v0q62 62 143.5 96.5t172.5 34.5v0zM706 419v0h-161
v275q0 14 -10 24t-25 10q-14 0 -24 -10t-10 -24v-310q0 -14 10 -24t24 -10h196q14 0 24 10t10 24.5t-10 24.5t-24 10v0zM778 653v0q-52 52 -121.5 81.5t-146.5 29.5t-146 -29.5t-121 -81.5h-1q-52 -53 -81 -122t-29 -147q0 -77 29 -146t82 -122v0q52 -53 121.5 -82
t145.5 -29t145 29t122 80l1 2q53 53 82 122t29 146t-29 146t-80 121z" />
    <glyph glyph-name="calendar" unicode="&#xe60a;" 
d="M691 577q16 0 27.5 11t11.5 27v172q0 16 -11.5 27t-27.5 11t-27 -11t-11 -27v-172q0 -16 11 -27t27 -11v0zM615 730h-192v-58h192v58zM840 730h-72v-57h74q17 0 29 -12t12 -29v-132h-728v132q0 17 12 29t29 12h74v57h-71q-41 0 -70.5 -29.5t-29.5 -71.5v-583
q0 -42 28.5 -71.5t69.5 -29.5h643q41 0 70.5 29.5t29.5 71.5v583q0 42 -29.5 71.5t-70.5 29.5v0zM883 43q0 -17 -12 -28.5t-29 -11.5h-646q-17 0 -29 11.5t-12 28.5v400h728v-400zM308 270q24 0 40.5 17t16.5 41t-16.5 41t-40.5 17t-41 -17t-17 -41t17 -41t41 -17v0z
M519 270q23 0 40 17t17 41t-17 41t-40.5 17t-40.5 -17t-17 -41t17 -41t41 -17v0zM307 60q24 0 40.5 16.5t16.5 40.5t-16.5 41t-40.5 17t-41 -17t-17 -41t17 -40.5t41 -16.5v0zM519 60q23 0 40 16.5t17 40.5t-17 41t-40.5 17t-40.5 -17t-17 -41t17 -40.5t41 -16.5v0zM729 270
q24 0 40.5 17t16.5 41t-16.5 41t-40.5 17t-41 -17t-17 -41t17 -41t41 -17v0zM346 577q16 0 27.5 11t11.5 27v172q0 16 -11.5 27t-27 11t-27 -11t-11.5 -27v-172q0 -16 11.5 -27t26.5 -11v0zM346 577z" />
    <glyph glyph-name="ticket2" unicode="&#xe606;" 
d="M627 25l-123 82l-110 -82l-104 77l-115 -75v716h674v-715l-126 79zM468 550q-6 -23 -13 -40h-159v-37h132q-39 -44 -132 -78v-39q8 2 21 7q36 12 51 19v-17h53v-2q9 -81 -111 -107v-36q90 13 133 49.5t38 95.5h107v-71q2 -27 -28 -25h-32v-39h57q65 -2 64 62v90
q1 0 6.5 -2t9.5 -3q38 -13 61 -19v37q-83 27 -125 78h125v37h-206q8 17 14 40h173v38h-58q11 20 16 54h-54q-4 -30 -15 -54h-59q2 17 2 37v32h-64v-69h-52q-10 24 -15 54h-57q9 -37 17 -54h-53v-38h153zM534 473q32 -44 73 -68h-192q57 28 85 68h34zM534 473z" />
    <glyph glyph-name="round-success" unicode="&#xe658;" 
d="M831 702q-65 65 -149.5 98.5t-169.5 33.5t-169.5 -33.5t-149 -98.5t-98.5 -149t-34 -169.5t34 -170t98.5 -149t149 -98t169.5 -33.5t169.5 33.5t149.5 98.5q86 86 117 202t0 232.5t-117 202.5v0zM785 110q-74 -74 -173.5 -100t-199 0t-173.5 100q-55 56 -84 128
t-29 145.5t29 145.5t84 127q74 74 173.5 100.5t199 0t173.5 -100.5q55 -55 84 -127t29 -145.5t-29 -145.5t-84 -128v0zM777 545q-9 9 -22.5 8.5t-21.5 -9.5l-280 -298l-149 147q-9 9 -22.5 9t-21.5 -9q-10 -9 -9.5 -22t9.5 -22l173 -171v0v0q2 -2 6 -4l4 -2q5 -2 11 -2t12 2
q1 1 5 3q3 2 5 4l303 322q8 9 8 22t-10 22v0zM777 545z" />
    <glyph glyph-name="tickets" unicode="&#xe61f;" 
d="M958 277v-8q0 -87 -61.5 -148t-147.5 -61h-477q-86 0 -147.5 61t-61.5 148v8q42 0 71.5 29.5t29.5 71t-29.5 71t-71.5 29.5v25q0 86 61.5 147.5t147.5 61.5h477q86 0 147.5 -61.5t61.5 -147.5v-25q-42 0 -71 -29.5t-29 -71t29 -71t71 -29.5zM521 249l14 22q-46 24 -87 44
l-12 -18q39 -20 85 -48zM260 249q43 23 86 50l-17 17q-35 -24 -82 -46q8 -12 13 -21zM531 521h-274v-18h89v-27h-73v-82h20v9h201v-9h21v82h-74v27h90v18zM273 381v-18h243v18h-243zM537 341h-285v-18h134v-34q0 -18 -19 -18q-13 0 -36 2q3 -14 4 -24h39q34 0 34 35v39h129
v18zM648.5 662q-6.5 0 -11.5 -5t-5 -12.5t5 -12.5t11.5 -5t11.5 5t5 12.5t-5 12.5t-11.5 5zM648.5 580q-6.5 0 -11.5 -5t-5 -12.5t5 -12.5t11.5 -5t11.5 5t5 12.5t-5 12.5t-11.5 5zM648.5 498q-6.5 0 -11.5 -5.5t-5 -12.5t5 -12t11.5 -5t11.5 5t5 12t-5 12.5t-11.5 5.5z
M648.5 415q-6.5 0 -11.5 -5t-5 -12t5 -12t11.5 -5t11.5 5t5 12t-5 12t-11.5 5zM648.5 332q-6.5 0 -11.5 -5t-5 -12t5 -12t11.5 -5t11.5 5t5 12t-5 12t-11.5 5zM648.5 244q-6.5 0 -11.5 -5t-5 -12t5 -12t11.5 -5t11.5 5t5 12t-5 12t-11.5 5zM648.5 153q-6.5 0 -11.5 -5
t-5 -12t5 -12t11.5 -5t11.5 5t5 12t-5 12t-11.5 5zM367 458h53v-37h-53v37zM367 503h53v-27h-53v27zM293 458h53v-37h-53v37zM494 421h-53v37h53v-37z" />
    <glyph glyph-name="password" unicode="&#xe607;" 
d="M810 526h-79q0 95 -64.5 160t-158 65t-157.5 -65t-64 -160h-79q0 76 40 146t110 114.5t150.5 44.5t151 -44.5t110.5 -114.5t40 -146v0zM857 396q0 32 -23.5 55.5t-56.5 23.5h-530q-33 0 -56 -23.5t-23 -55.5v-378q0 -32 23 -55.5t56 -23.5h530q33 0 56.5 23.5t23.5 55.5
v378zM576 101q0 -25 -17.5 -42.5t-41.5 -17.5h-9q-25 0 -42 17.5t-17 42.5v161q0 25 17 42.5t42 17.5h9q24 0 41.5 -17.5t17.5 -42.5v-161zM576 101z" />
    <glyph glyph-name="ticket" unicode="&#xe685;" 
d="M779 545h-494v-354h494q22 0 37.5 16t15.5 38v35q-13 0 -22 10q-7 8 -7 19t7 19l1 1q1 0 1 0.5v0.5v0q1 0 1 1l0.5 0.5l0.5 0.5h0.5t1 0.5l0.5 0.5h1v1h1v0l1 1h1v1h1h1v0q1 0 1 1v0q4 1 7 1h1h1v59h-1h-1h-1v0q-1 1 -2 1v0h-1h-1h-1l-1 1h-2v0q-1 1 -2 1v0q-1 1 -2 1v0
q0 1 -1 1l-1 1q-1 0 -1 1h-1q0 1 -1 1v1q-1 0 -2 1q-7 8 -7 19t7 20q9 9 22 9v37q0 22 -15.5 37.5t-37.5 15.5zM616 401v-22h-76v-33h76v-22h-76v-1v1v0v-1v-42h-22v43h-77v22h77v33h-77v22h44l-44 54h33l44 -54h22l43 54h33l-44 -54h44zM178 545q-22 0 -37.5 -15.5
t-15.5 -37.5v-37q13 0 22 -9q7 -9 7 -20t-7 -19l-2 -2q-1 0 -1 -1h-1q0 -1 -1 -1v0q0 -1 -1 -1v0q-1 0 -1 -1h-1h-1v-1h-1v0l-1 -1v0h-1h-1q-2 -1 -4 -1v0q-1 -1 -2 -1h-1v0h-1h-1v-59q13 0 22 -10q7 -8 7 -19t-7 -19q-9 -10 -22 -10v-35q0 -22 15.5 -38t37.5 -16h64v354
h-64zM318 647v-68q0 -1 2 -1h497q22 0 37.5 -16t15.5 -38v-34q0 -2 -2 -2q-12 -1 -20 -10q-7 -8 -7 -19t7 -19q1 -1 1 -2h1l1 -1v-1q1 0 2 -1v0q1 -1 2 -1v0q1 -1 2 -1v0q1 -1 2 -1v0q1 -1 2 -1v0h2v-1h2v0h1h1h1v0v0q2 0 2 -2v-57h-1h-1q-4 -1 -7 -2v0h-1v0l-1 -1h-1h-1v-1
h-1v0q-1 0 -1 -0.5t-1 -0.5l-0.5 -0.5l-0.5 -0.5l-0.5 -0.5l-0.5 -0.5l-0.5 -0.5l-0.5 -0.5h-1v-1h-0.5h-0.5q0 -1 -1 -1q-7 -9 -7 -20t7 -19q8 -9 20 -10q2 0 2 -1v-34q0 -6 -2 -12q0 -3 2 -3h27q1 0 1 2v326q0 24 -17 41.5t-42 17.5h-519q-2 0 -2 -2z" />
    <glyph glyph-name="location2" unicode="&#xe6b8;" 
d="M511 -61q-90 0 -173 35.5t-142.5 95.5t-95 142.5t-35.5 173t35.5 173.5t95 142.5t142.5 95t173.5 35.5t173 -35.5t142.5 -95t95 -142.5t35 -173q0 -93 -34.5 -175.5t-99.5 -144.5q-8 -7 -15 -14l-28 32q7 7 13 12q122 117 122 290q0 109 -54 202t-147 147t-202.5 54
t-202.5 -54t-147 -147t-54 -202.5t54 -202.5t147 -147t202 -54q82 0 159 33l17 -39q-86 -37 -176 -37v0zM527 479q34 -5 59 -30t30 -60l132 221zM436.5 298.5q-24.5 24.5 -30.5 60.5l-131 -222l221 132q-35 5 -59.5 29.5zM541.5 403.5q12.5 -12.5 12.5 -30t-12.5 -30
t-30 -12.5t-30 12.5t-12.5 30t12.5 30t30 12.5t30 -12.5z" />
    <glyph glyph-name="round-fail" unicode="&#xe644;" 
d="M512 832q-91 0 -174 -35.5t-143 -95.5t-95.5 -143t-35.5 -174t35.5 -174t95.5 -143t143 -95.5t174 -35.5t174 35.5t143 95.5t95.5 143t35.5 174t-35.5 174t-95.5 143t-143 95.5t-174 35.5v0zM512 -4q-105 0 -194.5 52t-141.5 141.5t-52 194.5t52 194.5t141.5 141.5
t194.5 52t194.5 -52t141.5 -141.5t52 -194.5t-52 -194.5t-141.5 -141.5t-194.5 -52v0zM557 385l138 137q10 9 10 22.5t-9.5 23t-22.5 9.5t-23 -10l-138 -137l-137 137q-9 10 -22.5 10t-22.5 -9.5t-9 -23t9 -22.5l136 -137l-137 -136q-10 -9 -10 -22t9.5 -22.5t22.5 -9.5
t23 9l137 136l139 -139q9 -10 22.5 -10t23 9.5t9.5 23t-10 22.5z" />
    <glyph glyph-name="photos" unicode="&#xe646;" 
d="M738 49h-586q-28 0 -47.5 19.5t-19.5 47.5v429q0 27 19.5 46.5t47.5 19.5h586q28 0 47.5 -19.5t19.5 -46.5v-429q0 -28 -19.5 -47.5t-47.5 -19.5zM152 575q-13 0 -22 -9t-9 -21v-429q0 -13 9 -22t22 -9h586q13 0 22 9t9 22v429q0 12 -9 21t-22 9h-586zM868 154h-68v37h68
q14 0 23 9t9 22v427q0 13 -9 22t-23 9h-597q-13 0 -22 -9t-9 -22v-43h-36v43q0 28 19.5 47.5t47.5 19.5h597q29 0 48.5 -19.5t19.5 -47.5v-427q0 -28 -19.5 -48t-48.5 -20zM768 86l-167 143l-133 -80l-182 207l-170 -170l-25 26l197 197l187 -213l130 78l186 -160zM616 338
q-35 0 -59.5 25t-24.5 59.5t24.5 59t59.5 24.5t59.5 -24.5t24.5 -59t-24.5 -59.5t-59.5 -25zM616 470q-20 0 -34 -14t-14 -33.5t14 -33.5t34 -14t34 14t14 33.5t-14 33.5t-34 14z" />
    <glyph glyph-name="location1" unicode="&#xe63d;" 
d="M115 473q-2 136 74 246t199 152q139 46 268 6.5t215 -156.5q78 -106 78 -244.5t-79 -244.5q-88 -116 -245 -305q-47 -56 -96.5 -54.5t-95.5 59.5q-184 228 -227 285q-94 123 -91 256zM168 473q-10 -99 66 -201q57 -79 250 -317q26 -30 51 -27.5t49 32.5q16 20 75 91.5
t96 119t71 94.5q74 107 71 223.5t-79 214.5q-71 91 -182.5 124.5t-220.5 -4.5q-112 -38 -179.5 -133t-67.5 -217zM352 479q0 76 49 127.5t123 51.5q81 1 135.5 -50t54.5 -127q1 -77 -53.5 -131.5t-131.5 -53.5q-76 1 -126.5 53t-50.5 130zM532 605q-53 1 -89 -34t-38 -89
q-1 -55 35.5 -93t91.5 -39q52 0 89 36.5t38 88.5q1 56 -35 93t-92 37z" />
    <glyph glyph-name="center" unicode="&#xe600;" 
d="M668 623h-315q-11 0 -19 -7t-8 -16.5t8 -16.5t19 -7h315q11 0 19 6.5t8 16.5t-8 17t-19 7zM933 68h-23v414q0 27 -18.5 45.5t-44.5 18.5h-59v152q0 26 -18.5 44.5t-44.5 18.5h-429q-26 0 -44.5 -18.5t-18.5 -44.5v-152h-60q-26 0 -44.5 -18.5t-18.5 -45.5v-414h-21
q-10 0 -17.5 -9t-7.5 -22t7.5 -22t17.5 -9h844q11 0 18.5 9t7.5 22t-7.5 22t-18.5 9zM171 68v364q0 21 15.5 36.5t36.5 15.5h10v-414v-2h-62zM726 68h-431v580q0 22 14.5 37t34.5 15h333q20 0 34.5 -15t14.5 -37v-580zM849 68h-61v2v414h9q22 0 37 -15.5t15 -36.5v-364z
M668 515h-315q-11 0 -19 -7t-8 -16.5t8 -16.5t19 -7h315q11 0 19 7t8 16.5t-8 16.5t-19 7zM668 407h-315q-11 0 -19 -7t-8 -16.5t8 -16.5t19 -7h315q11 0 19 7t8 16.5t-8 16.5t-19 7z" />
    <glyph glyph-name="wallet" unicode="&#xe6e2;" horiz-adv-x="1058" 
d="M1058 -13q0 -22 -7.5 -40.5t-21.5 -33t-33 -22.5t-41 -8h-845q-23 0 -42.5 8t-35 22.5t-24 33t-8.5 40.5v571q0 44 31 74t75 30h846q44 0 75 -30t31 -74v-155h-265q-44 0 -75 -30t-31 -73q1 -30 13 -53q9 -20 31 -36t62 -16h265v-208v0zM899 715h-529q63 32 119 62
q48 24 97 50q48 25 75 39q40 22 72 20t55 -11q25 -12 44 -33zM741 300q0 21 15 36t37 15t37.5 -15t15.5 -36.5t-15 -37t-37.5 -15.5t-37.5 15.5t-15 37.5v0zM741 300z" />
    <glyph glyph-name="basketball" unicode="&#xe614;" 
d="M964 413q-54 -28 -134 -63q-97 -43 -199 -60q12 -40 34.5 -76t46 -59.5t51 -44t43 -29t28.5 -14.5q62 62 96.5 144t34.5 173q0 14 -1 29zM312 345q39 -9 78 -15q-22 255 100 504q-95 -5 -177.5 -47t-142.5 -112q30 -29 55 -61t49 -74.5t34.5 -93.5t3.5 -101zM256 367
q12 142 -117 267q-56 -84 -71 -185q85 -56 188 -88v6zM620 351q1 -9 2 -17q61 9 116.5 28t90 37.5t64.5 40t41 32.5t18 19q-30 122 -120 212q-26 -22 -51.5 -45.5t-58 -60.5t-55 -73.5t-36.5 -83t-11 -89.5zM429 379q2 -27 4 -53q46 -4 93 -2q23 1 45 3q-5 53 9.5 108t39 98
t59 86t60.5 69t54 50q-109 86 -247 95q-21 -33 -39 -72t-38.5 -97t-31.5 -132.5t-8 -152.5zM653 147q-56 65 -74 137q-70 -7 -141 -2q10 -65 29.5 -123t39.5 -94.5t39 -63t31 -38l12 -11.5q1 -5 2 -13q103 18 187 79q-48 40 -125 129zM395 286q-46 6 -92 17
q-21 -72 -80 -139q-31 -37 -58 -65q63 -78 154 -122t195 -44h2h2q-28 56 -64 143q-43 102 -59 210zM63 392v-8q0 -132 71 -242q89 75 114 175q-96 28 -185 75z" />
    <glyph glyph-name="zhihuichangguan" unicode="&#xe62c;" horiz-adv-x="1026" 
d="M991 21h-31v477q0 29 -30 50t-72 21h-30v174q0 30 -21 51t-51 21h-487q-29 0 -50 -21t-21 -51v-174h-28q-42 0 -72.5 -21t-30.5 -50v-477h-37q-13 0 -21.5 -9.5t-8.5 -23.5t8.5 -24t21.5 -10h961q12 0 20.5 10t8.5 24t-8.5 23.5t-20.5 9.5zM167 21v419q0 7 -1.5 18t-2 17
t1.5 12.5t9.5 9t21.5 2.5h2v-471v-7h-31v0zM832 499q14 0 21.5 -2.5t9.5 -9t1.5 -12.5t-2 -17t-1.5 -18v-419h-34q1 4 1 7v471h4zM330 683h359q13 0 22 -10t9 -24t-9 -24t-22 -10h-359q-12 0 -21 10t-9 24t9 24t21 10zM330 551h359q13 0 22 -10t9 -23.5t-9 -23.5t-22 -10
h-359q-12 0 -21 10t-9 23.5t9 23.5t21 10zM300 384.5q0 13.5 9 23.5t21 10h359q13 0 22 -10t9 -23.5t-9 -23t-22 -9.5h-359q-12 0 -21 9.5t-9 23z" />
    <glyph glyph-name="football" unicode="&#xe62f;" 
d="M683 442q-5 -32 -5 -34q-2 -16 -4 -42q-1 -6 -8 -74q-1 -18 -1 -19q-1 -4 -4 -6q-33 -20 -77 -38q-18 -8 -50 -21t-44 -18q-2 -1 -5 1q-76 57 -146 108q-3 2 -3 6q2 17 8 76q1 8 4 37t5 44q0 1 1 10.5t1 14.5q1 4 4 5q33 15 132 61q25 12 30 14q3 2 6 0q83 -59 151 -107
q3 -2 4 -8v-10h1zM828 549q-2 -33 -2 -39q0 -3 -3 -4q-22 -7 -67 -21.5t-68 -21.5q-3 -1 -5 1q-29 21 -82.5 59.5t-68.5 49.5q-4 3 -4 10v13.5v13.5q-1 18 -1 62l-1 46q0 3 2 4q18 11 22 12q25 10 65 17q11 2 48 7q2 0 7 -1q15 -4 31 -15q73 -50 87 -62q2 -3 15 -15
q15 -14 20 -43q4 -25 5 -73zM793 191q-8 -70 -22 -111q-10 -27 -33 -38q-2 -1 -8 -4.5t-10 -5.5q-13 -5 -51.5 -21t-59.5 -25q-22 -10 -48 0q-21 7 -53 28q-8 5 -23 15t-22 14q-2 1 -2 4q4 18 21 99q6 24 8 34q0 4 4 5q74 30 113 46q36 14 57 30q2 1 5 0q18 -10 71 -39
q41 -22 50 -27q4 -2 3 -4zM247 593q31 -30 35 -34q58 -56 65 -63q2 -3 2 -6q-2 -24 -10 -100q-7 -65 -10 -85q0 -3 -2 -5q-17 -11 -54 -36t-56 -38q-4 -2 -8 1l-15 15q-3 4 -12.5 13.5l-14.5 14.5l-24.5 24.5t-26.5 27.5q-2 2 -2 5q1 73 1 93q1 23 13 78q3 14 20 30t54 38
q4 3 45 27zM950 340q-25 1 -29 2q-19 1 -20 1q-3 0 -4 3q-27 80 -34 101q-3 9 -16 34q-5 11 -10 17q-7 8 -6 20q0 2 1 11.5t1 14.5v40q-2 34 -9 57l-3 8q35 15 55 -15q5 -7 9 -15q28 -53 32 -62q19 -43 27 -102q7 -49 6 -113v-2zM127 515q-11 29 -12 32q-3 9 1 20
q6 17 21 41q34 51 64 83q36 38 72 61q4 3 50 28q7 4 8.5 3.5t4.5 -8.5q10 -26 12 -32q2 -5 -1 -8q-2 -2 -17.5 -20t-24.5 -28q-25 -27 -53 -76q-7 -11 -20 -18q-11 -5 -32 -19q-32 -22 -52 -37q-1 -1 -18 -19zM356 741q-14 38 -18 47q22 8 23 8q47 16 54.5 18t41.5 6
q35 5 46 5q64 -1 99 -9q20 -4 41 -10q6 -2 8.5 -7.5t10.5 -25.5q0 -1 2 -8q-29 -3 -31 -4q-43 -5 -69 -16q-2 0 -24 -11l-1 -1q-11 -6 -15 -6t-18 2q-45 9 -62 11q-43 6 -87 1h-1zM766 56q15 33 28 95q1 7 5 37q1 6 5 9q38 40 70 90q15 24 23 50q8 -1 25 -2t26 -2
q-1 -22 -1 -23q-8 -69 -52 -142q-30 -52 -71 -98q-12 -13 -20 -14q-7 -1 -20 -1q-1 0 -18 1v0zM110 317q11 -6 19 -16q17 -21 70 -73q16 -15 20 -32q10 -45 53 -110q9 -14 11 -16.5t0 -4.5q-15 -20 -25 -34q-2 -2 -5 0q-22 18 -29 25q-57 50 -96 119q-28 51 -38 101
q-2 12 4 19q2 2 16 22zM583 -26q-4 -17 -22 -26q-16 -7 -42 -8q-25 0 -75 9q-58 11 -106 31q-13 5 -44 25q-5 3 -29 17q-4 3 -2 6q2 2 11 14t14 18q1 2 4 1q2 0 7.5 -1.5t8.5 -2.5q6 -2 51 -10q14 -3 29.5 -4t35.5 -2t29 -1q4 -1 7 -3q41 -30 80 -48q22 -11 40 -14l3 -1v0z
" />
    <glyph glyph-name="balance" unicode="&#xe7a9;" 
d="M512 -63q-206 0 -299.5 74.5t-93.5 230.5q0 127 85 244.5t206 160.5h203q121 -43 206.5 -160.5t85.5 -244.5q0 -156 -94 -230.5t-299 -74.5v0v0zM621 275v0q13 0 23 9.5t10 23.5t-10 24t-23 10v0h-68v1.5v0.5l79 82q16 18 -6 40q-10 10 -24 11.5t-22 -6.5l-68 -74l-73 75
q-7 7 -19 5t-21.5 -12t-11.5 -22t5 -19l75 -76q-2 -2 -3 -6h-61v0v0q-14 0 -23.5 -10t-9.5 -24t9.5 -23.5t23.5 -9.5v0v0h67v-34h-67v0v0q-14 0 -23.5 -10t-9.5 -24t9.5 -24t23.5 -10v0v0h67v-34h1q-1 -4 -1 -8q0 -17 12 -29.5t29.5 -12.5t30 12.5t12.5 29.5q0 4 -1 8v0v34
h68q13 0 23 10t10 24t-10 24t-23 10v0h-68v34h68zM671 781l-7 -8q0 -1 -0.5 -1h-0.5l-59 -75h-201l-59 75q-1 0 -1 0.5t-1 0.5l-6 8l1 3q-1 5 -1 6q0 17 16 24l1 1q82 17 150 17q32 0 69.5 -4t59.5 -8l22 -5l1 -1q16 -7 16 -24q0 -1 -2 -6zM671 781z" />
    <glyph glyph-name="order" unicode="&#xe639;" 
d="M790 33h-557q-14 0 -24 10.5t-10 24.5v626q0 14 10 24t24 10h70v-34q0 -15 10 -25t25 -10h347q15 0 25 10t10 25v34h70q14 0 24 -10t10 -24v-626q0 -14 -10 -24.5t-24 -10.5zM485 555h-156q-11 0 -18.5 -8t-7.5 -18.5t7.5 -18t18.5 -7.5h156q11 0 18.5 7.5t7.5 18
t-7.5 18.5t-18.5 8zM694 433h-365q-11 0 -18.5 -7.5t-7.5 -18.5t7.5 -18.5t18.5 -7.5h365q11 0 18.5 7.5t7.5 18.5t-7.5 18.5t-18.5 7.5zM694 311h-365q-11 0 -18.5 -7.5t-7.5 -18.5t7.5 -18.5t18.5 -7.5h365q11 0 18.5 7.5t7.5 18.5t-7.5 18.5t-18.5 7.5zM668 694h-313
q-7 0 -12 5t-5 12v35q0 7 5 12t12 5h87q0 29 20.5 49.5t49 20.5t49 -20.5t20.5 -49.5h87q7 0 12 -5t5 -12v-35q0 -7 -5 -12t-12 -5zM511.5 781q-7.5 0 -12.5 -5.5t-5 -12.5t5 -12t12.5 -5t12.5 5t5 12t-5 12.5t-12.5 5.5z" />
    <glyph glyph-name="telephone2" unicode="&#xe653;" 
d="M516 178v0q-19 0 -33 -13.5t-14 -32.5t14 -33t33 -14v0q19 0 32.5 14t13.5 33q-2 19 -15 32.5t-31 13.5zM332 654h367v-454h-367v454zM512 874q-100 0 -190.5 -38.5t-156.5 -104.5t-104.5 -156.5t-38.5 -190.5t38.5 -190.5t104.5 -156.5t156.5 -104.5t190.5 -38.5
t190.5 38.5t156.5 104.5t104.5 156.5t38.5 190.5t-38.5 190.5t-104.5 156.5t-156.5 104.5t-190.5 38.5zM743 121q0 -33 -23.5 -56.5t-56.5 -23.5h-302q-33 0 -56.5 23.5t-23.5 56.5v523q0 32 23.5 55.5t56.5 23.5h302q33 0 56.5 -23.5t23.5 -55.5v-523z" />
    <glyph glyph-name="vip" unicode="&#xe630;" 
d="M78 563h868q6 0 9.5 2.5t3.5 4.5v3v93q0 18 -13 31.5t-32 13.5h-805q-18 0 -31.5 -13.5t-13.5 -31.5v-87q0 -7 3.5 -11t6.5 -5h4zM940 466h-862q-6 0 -9.5 -2.5t-3.5 -5.5l-1 -3v-350q0 -19 13.5 -32.5t31.5 -13.5h805q19 0 32 13.5t13 32.5v343q0 2 -0.5 5t-5 8t-13.5 5
zM202 325q0 -7 -5 -11.5t-11 -4.5h-59q-7 0 -11.5 4.5t-4.5 11.5v56q0 6 4.5 11t11.5 5h59q6 0 11 -5t5 -11v-56zM326 325q0 -7 -5 -11.5t-12 -4.5h-58q-7 0 -11.5 4.5t-4.5 11.5v56q0 6 4.5 11t11.5 5h58q7 0 12 -5t5 -11v-56zM562 116h-43l-61 179h41l38 -127q3 -9 4 -18
h1q1 9 4 19l38 126h40zM723 265h-15v-120h15v-29h-68v29h15v120h-15v30h68v-30zM881.5 194q-20.5 -17 -50.5 -16h-20v-62h-38v179h62q67 0 67 -57q0 -27 -20.5 -44zM828 265h-17v-58h17q34 0 34 30q0 28 -34 28z" />
    <glyph glyph-name="coin" unicode="&#xe7ac;" 
d="M512 -64q-185 0 -316.5 131.5t-131.5 316.5t131.5 316.5t316.5 131.5t316.5 -131.5t131.5 -316.5t-131.5 -316.5t-316.5 -131.5zM512 768q-159 0 -271.5 -112.5t-112.5 -271.5t112.5 -271.5t271.5 -112.5t271.5 112.5t112.5 271.5t-112.5 271.5t-271.5 112.5zM686 281
q-4 -9 -10.5 -13.5t-13.5 -6.5h-7h-8q-15 2 -35 12l-3 -31q8 -5 21 -10q10 -5 28 -10q15 -5 36 -8q10 -2 17 -2q11 0 20 4q14 5 24 16q9 11 13.5 26.5t6.5 32.5q2 16 1 33q0 8 -1 31q-2 17 -6 30q-4 15 -19 30q-15 16 -43 28q-28 13 -76 17q-16 2 -41 2q-26 0 -42 -2h-4v36
h3q12 1 27 2q64 5 85 7q52 5 101 13q-3 5 -4 9l-1 2q-3 6 -4 10q-1 2 -2 4.5t-1.5 3.5t-2.5 6t-4.5 10.5t-5.5 13t-5 13.5q-60 -18 -110 -28q-52 -11 -112 -19q-56 -7 -115 -11h-16q-17 0 -53 2q-39 3 -51 3l13 -51q8 0 32 1q33 2 47 2q49 0 109 3h6v-51h-5q-39 -8 -67 -17
q-9 -3 -36 -9q-7 -2 -22 -8l2 -1v42h-96v-224h96v140h-4q13 6 37 12l28 8q12 5 61 19l6 1v-243l-5 -1h69v254h3q3 1 27 3q3 0 7.5 -0.5t5.5 -0.5h24v0q2 0 5.5 1t5.5 1q28 0 40 -6q19 -10 25 -21q4 -6 4 -13q1 -8 1 -13q1 -2 1 -9q2 -19 -1 -53q-2 -14 -6 -22z" />
    <glyph glyph-name="refund" unicode="&#xe61a;" 
d="M140 -63v894h613l131 -133v-761h-744v0zM289 638l-40 -40l92 -92l40 39zM382 458h-149v-55h93v-187l-93 -74l37 -56l74 56l56 -56h391v56h-353l-56 74v242zM760 357l-44 34l-57 -73l-88 70l-35 -44l219 -173l35 43l-88 70zM419 254l37 -75l152 53l-22 59l-93 -21v133h261
v223h-316v-368zM735 812v-130h131zM698 533h-205v56h205v-56zM698 440h-205v56h205v-56z" />
    <glyph glyph-name="donate" unicode="&#xe648;" 
d="M758 9v41q8 0 12.5 5.5t5.5 13.5l12 295h-552l19 -295q0 -8 5 -13.5t12 -5.5h486v-41h-486q-23 0 -40 16.5t-18 40.5l-19 298q-19 3 -33 17q-16 17 -18 40l-6 98q-2 24 15 41q18 19 43 19h632q25 0 43 -19q17 -17 15 -41l-6 -98q-2 -23 -18 -40q-14 -14 -33 -17l-12 -297
h-21l21 -1q-2 -23 -18 -40q-17 -17 -41 -17v0zM196 538q-8 0 -13 -6q-5 -4 -4 -10l6 -98q1 -8 5.5 -13.5t12.5 -5.5h618q8 0 12.5 5.5t5.5 13.5l6 98q1 6 -4 10q-5 6 -13 6h-632zM512 9q-8 0 -14 6t-6 15v529q0 8 6 14t14 6t14 -6t6 -14v-529q0 -9 -6 -15t-14 -6zM476 556
q-97 0 -157 25q-68 28 -77 79q-5 32 15 60q19 26 53 36q57 17 116 -21q51 -33 90 -103q19 36 43.5 60t47 33.5t45.5 12t40 -4.5q27 -9 42 -30.5t11 -46.5q-3 -20 -19 -38q-16 -17 -43 -30q-58 -28 -163 -31q-23 -1 -44 -1zM344 720q-12 0 -22 -3q-20 -6 -31 -20t-9 -30
q6 -29 52 -49q56 -23 154 -21q-37 73 -84 103q-30 20 -60 20zM551 612q-1 -2 -4 -13q54 4 91.5 16t51 24t15.5 23q1 10 -6 19t-20 13q-28 9 -63.5 -9.5t-64.5 -72.5z" />
    <glyph glyph-name="tickets2" unicode="&#xe631;" 
d="M275 580v21q0 16 12 29.5t25 13.5h104v-64h-141zM617 453q-5 3 -9 5q-6 2 -8 1q-3 -2 -7 -8q-4 -7 -7 -11q-3 -5 -13 -20q-6 -9 -12 -19q-6 -8 -7 -10q-1 -3 -5 -2.5t-6 4.5q-1 2 -7 9q-6 8 -13 17q-4 7 -13 18q-6 8 -8 12q-7 14 -15 9q-5 -3 -9 -7l-8 -6q-7 -6 -2 -14
q13 -17 22 -30q13 -17 16 -22q7 -10 9 -12q2 -3 -3 -3h-9q-5 0 -11 -1q-7 0 -13 1q-6 0 -9.5 -3.5t-2.5 -8.5q1 -3 1 -9v-10q0 -4 2 -4.5t5 -0.5h44q9 0 9 -4v-15q0 -4 -2 -4h-50q-4 1 -6 -3q-1 -3 -2 -7t0 -7q1 -4 1 -7q0 -10 9 -10h45q4 0 5 -1q1 -2 1 -5q1 -5 0 -15v-14
q0 -9 9 -9h25q6 0 6 5v32q0 8 6 8h7h12q8 1 12 1h10q10 0 10 8v17q0 8 -7 8h-44q-7 -2 -7 3q0 3 -0.5 6t-0.5 7q0 3 3 4q2 2 5 2h45q7 0 7 6v19q0 3 -2.5 6.5t-6.5 3.5h-25q-4 0 -8 1q-4 0 -2 4q0 1 1 2.5t2.5 4t3.5 5.5l14 20q2 2 7 9.5t8 11.5q7 10 8 12q4 6 -4 15
q-2 2 -6 5zM511.5 896q-102.5 0 -196 -40t-161 -107.5t-107 -160.5t-39.5 -195.5t39.5 -196t107 -161t161 -107.5t196 -40t196 40t160.5 107.5t107 161t40 196t-40 195.5t-107 160.5t-160.5 107.5t-196 40zM330 140h-42q-18 0 -32 1h-22q-21 -1 -29 7.5t-8 30.5v116
q0 9 2.5 13.5t10.5 5.5q3 0 9 3q5 2 10 8q5 5 9 13q4 9 4 21q0 18 -10 29q-9 10 -20 12q-8 1 -11.5 5t-3.5 13v85q0 22 6 31q7 9 31 9h96v-403zM758 379q5 -7 13 -11q7 -3 11 -9q4 -7 4 -14t-3 -13.5t-9 -9.5q-18 -10 -19 -24q-1 -13 14 -22q7 -3 11 -9.5t5 -14.5
q0 -8 -3 -14t-10 -8q-9 -3 -14 -9t-5 -13.5t4 -14.5q4 -8 13 -12q6 -4 8.5 -10.5t1.5 -13.5q0 -7 -4 -11q-3 -6 -9 -6h-393v403h397q6 0 10 -5q3 -5 4 -12q0 -6 -3 -12.5t-10 -9t-11 -7.5q-4 -6 -5 -13q0 -6 3 -13q4 -7 13 -10q7 -3 11 -9q4 -7 5 -14q0 -6 -3 -13
q-4 -6 -11 -8q-9 -3 -14 -9q-5 -7 -6 -15q0 -7 4 -14zM860 468q4 -7 11.5 -12t10.5 -13q3 -7 3 -16q0 -8 -4 -15q-3 -6 -10 -7q-6 -2 -8 -7q-3 -6 -3 -12t3 -12q2 -6 8 -9q6 -2 10 -9q3 -8 3.5 -16t-2 -15t-6.5 -11q-15 -9 -15 -21q0 -13 15 -24q3 -3 5 -9q3 -7 3 -13.5
t-3 -10.5q-3 -5 -10 -5h-41q-5 0 -5 0.5t1 2.5q2 2 4 4.5t4 5.5q4 12 0 20t-13 13q-6 4 -9 11q-2 6 -2 13.5t2.5 13t6.5 8.5q7 2 9 9q4 6 4 13t-3 14q-2 6 -7 8q-6 3 -9 9.5t-3 14.5t3 16t9 12q5 3 8 9q3 5 3 12q1 6 -2 13q-3 6 -9 10q-8 4 -11 11q-4 8 -4 16t4 16q3 7 9 11
q13 7 14 20q1 12 -2 22q-2 9 -9 15q-6 6 -17 6h-361v64h423q5 0 9 -4t5 -9.5t-0.5 -11.5t-7.5 -10q-4 -5 -8 -11q-3 -6 -3 -13q-1 -7 1 -14q3 -7 9 -10q8 -5 12 -13.5t4 -16.5t-4 -15.5t-11 -10.5q-9 -4 -12.5 -9.5t-4.5 -13.5q0 -7 3 -14zM609 363z" />
    <glyph glyph-name="cards2" unicode="&#xe60d;" 
d="M506 879q-102 0 -194.5 -39.5t-160 -106.5t-107 -160t-39.5 -195t39.5 -195t107 -160t160 -107t195 -40t195 40t160 107t107 160t39.5 195t-39.5 195t-107 160t-160 106.5t-195.5 39.5v0zM485 602q27 14 52 27q26 14 40 21q22 12 39 11t29 -6q14 -6 24 -18l36 -69h-284
q34 17 64 34v0zM790 397h-142q-23 0 -39.5 -16t-16.5 -40q0 -16 6 -29q5 -11 17 -19.5t33 -8.5h142v-114q0 -12 -4 -22t-11.5 -18t-17.5 -12.5t-22 -4.5h-454q-12 0 -22.5 4.5t-18.5 12.5t-12.5 18t-4.5 22v312q0 24 16.5 40.5t39.5 16.5h455q23 0 39.5 -16.5t16.5 -40.5
v-85zM677 341q0 -12 -8.5 -20.5t-20 -8.5t-20 8.5t-8.5 20.5t8.5 20t20 8t20 -8t8.5 -20v0zM677 341z" />
    <glyph glyph-name="refund2" unicode="&#xe6c3;" 
d="M432 547v-31h62v-15h-62v-31h62v-32h31v32h63v31h-63v15h63v31h-59l65 65l-22 22l-62 -62l-63 62l-22 -22l65 -65h-58zM512 864q-98 0 -186.5 -38t-153 -102.5t-102.5 -153t-38 -186.5t38 -186.5t102.5 -153t153 -102.5t186.5 -38t186.5 38t153 102.5t102.5 153t38 186.5
t-38 186.5t-102.5 153t-153 102.5t-186.5 38zM509.5 701q66.5 0 113.5 -46.5t47 -113t-47 -113.5t-113.5 -47t-113 47t-47 113.5t46.5 113t113.5 46.5zM828 304q-18 -13 -116.5 -78t-116.5 -75q-3 -2 -15 -9t-17 -9.5t-16.5 -6.5t-21 -3.5t-23.5 3.5t-30 11q-2 1 -131 67
q-22 10 -33.5 9.5t-28.5 -11.5l-39 -25l-77 170q84 39 122 54q21 9 38 11t34 -4t24 -9.5t26 -15.5l62 -44q48 -28 95 -28q53 0 68.5 -5t15.5 -22q0 -7 -5 -12t-11.5 -8t-14 -4.5t-11.5 -2t-5 -0.5h-115q-18 0 -41.5 6t-37.5 11l-15 6q5 -6 14 -14t34 -22t46 -14h115
q26 1 50 14t24 40q0 16 -6.5 26.5t-14.5 16t-25 8.5t-29 3h-36q-6 0 -14 2q3 2 8 4q14 9 43 26q34 21 52.5 22t36.5 -20q20 20 52 20q14 0 23.5 -9t6.5 -24q58 35 82 4q20 -26 -26 -59z" />
    <glyph glyph-name="event" unicode="&#xe617;" 
d="M87 70l218 126l77 118q10 -29 38 -43l34 -16l-77 -118q-6 -10 -16 -15l-227 -132q-11 -6 -24 -6q-26 0 -40 23q-9 17 -4 35.5t21 27.5zM761 569q-45 0 -76.5 31.5t-31.5 76.5t31.5 76.5t76.5 31.5t76.5 -31.5t31.5 -76.5t-31.5 -76.5t-76.5 -31.5zM709 464q28 25 26 62
l50 -33l94 102q13 14 32 15t33 -12t15 -32t-12 -33l-120 -132q-14 -16 -34 -16q-15 0 -26 8l-78 53zM613 211l-179 88q-23 11 -26 35.5t15 40.5l159 142l-95 63l-139 -40q-18 -5 -35 4t-22 27.5t4 35.5t28 22l159 46q21 6 39 -6l163 -108q19 -13 20.5 -35.5t-15.5 -38.5
l-153 -135l164 -80q18 -9 24 -28.5t-5 -37.5l-124 -200q-13 -22 -39 -22q-13 0 -24 7q-17 10 -21.5 28.5t6.5 35.5z" />
    <glyph glyph-name="refundlabel" unicode="&#xe68c;" 
d="M859 704v0q-101 47 -206 88t-142 42q-37 -1 -142 -42t-207 -88q-16 -8 -26 -23.5t-10 -33.5q4 -192 59 -331q28 -71 66.5 -133.5t75 -104t73.5 -73t63 -47.5t42 -20h6h5q23 6 61 33.5t84 72.5t94 117.5t80 154.5q55 138 59 331q1 16 -10 33.5t-25 23.5zM796 332v0
q-31 -76 -74.5 -143t-85.5 -108.5t-74 -66.5t-52 -33q-20 8 -51.5 32t-73 64.5t-85.5 108t-75 146.5q-52 131 -56 316q0 12 11 17q115 54 210 90t121 36t120.5 -36t209.5 -89q3 -2 7 -8t4 -10q-4 -185 -56 -316zM536 429l-15 -21q85 -54 148 -99l19 26q-28 18 -69 44
q35 14 72 29l-19 27q-40 -22 -78 -40q-27 16 -58 34zM497 312q37 18 73 32q-2 14 -2 30q-44 -19 -74 -31v100h134v-10h28v173h-191v-253q0 -15 -11 -26l22 -28q10 8 21 13zM494 580h134v-43h-134v43zM494 512h134v-44h-134v44zM480 286q-55 2 -79 39v162h-74v-28h45v-128
q-15 -14 -49 -47l16 -31q30 36 46 51q26 -44 90 -45q106 -2 217 -1q6 17 11 30q-115 -3 -223 -2zM424 543q-34 49 -53 72l-25 -16q20 -26 51 -75z" />
    <glyph glyph-name="moment" unicode="&#xe62a;" 
d="M396 518q0 -37 26.5 -63.5t64 -26.5t64 26.5t26.5 63.5t-26.5 63.5t-64 26.5t-64 -26.5t-26.5 -63.5zM645 59q0 -24 -17 -41t-42 -17h-200q-24 0 -41 17t-17 41l76 278q0 24 17 41t41 17h54q24 0 41 -17t17 -41zM227 391q-27 58 -27 123q0 69 30 130q30 58 83 99h-1
q13 9 13 25q0 12 -8.5 21t-21.5 9q-11 0 -19 -7h-1q-63 -48 -99 -120q-38 -73 -38 -157q0 -78 34 -149h1q8 -18 27 -18q13 0 21.5 9t8.5 21q0 7 -3 14v0zM400 660q0 13 -8.5 21.5t-21.5 8.5q-11 0 -20 -7v1q-39 -32 -60.5 -76.5t-21.5 -94.5q0 -48 19 -91l1 1q8 -19 28 -19
q12 0 21 9t9 21q0 7 -4 13l1 1q-14 31 -14 65q0 75 59 123v0q12 9 12 24zM746 391q28 58 28 123q0 69 -31 130q-29 58 -82 99v0q-13 9 -13 25q0 12 9 21t21 9q11 0 20 -7v0q64 -48 100 -120q37 -73 37 -157q0 -78 -33 -149h-1q-8 -18 -28 -18q-12 0 -21 9t-9 21q0 7 4 14h-1
zM574 660q0 13 8.5 21.5t21.5 8.5q11 0 19 -7l1 1q39 -32 60.5 -76.5t21.5 -94.5q0 -48 -20 -91v1q-8 -19 -28 -19q-12 0 -21 9t-9 21q0 7 3 13v1q14 31 14 65q0 75 -60 123h1q-12 9 -12 24z" />
    <glyph glyph-name="badminton" unicode="&#xe656;" 
d="M1003 315l2 111l-114 1l-2 -1v0l2 1l2 111l-114 2l-2 -2v0l2 2l1 111l-114 1l-1 -1v0l2 1l1 111l-114 2l-1 -2v0l1 2l2 110l-114 2l-245 -538l-79 -129v1q-26 -15 -43 -32q-53 -52 -56 -123.5t45 -119.5t119.5 -45t123.5 56q17 17 32 43l-1 1l128 79zM338 199l75 41
l179 146l9 -9l-168 -153l-43 -78l-8 -7l-52 52zM314 176l51 -51l-45 -37l-47 48zM303 74l-27 -22l-44 44l25 24zM224 105l-44 44l22 27l46 -46zM263 146l-47 47l37 45l50 -51zM349 304l155 170l9 -9l-145 -177l-42 -78l-8 -7l-51 52l7 8zM209 328l76 41l131 193l10 -9
l-122 -201l-43 -77l-6 -9l-52 52zM242 249l-36 -46l-47 47l32 50zM146 231l46 -46l-21 -27l-44 44zM285 44l27 21l46 -46l-29 -19zM377 31l-47 47l46 36l51 -50zM445 76l-51 52l8 7l76 41l202 123l9 -9l-192 -131l-43 -77z" />
    <glyph glyph-name="favourite" unicode="&#xe726;" 
d="M867 639h-294l-34 53q-5 9 -19 17t-24 8h-334q-44 0 -44 -49v-569q0 -21 13.5 -35t38.5 -14h683q25 0 38.5 14t13.5 34v497q0 16 -11 30t-27 14zM867 118q0 -14 -6.5 -22t-19.5 -8h-643q-24 0 -32 9t-8 29v520q0 32 32 32h285q9 0 14 -1t12.5 -7t13.5 -18l31 -51h288
q18 0 25.5 -8.5t7.5 -26.5v-448zM685 401q-6 18 -25 21l-83 12l-36 73q-8 17 -28 17t-29 -17l-36 -73l-82 -12q-19 -3 -25.5 -21t7.5 -31l61 -60l-14 -82q-4 -19 13 -30q16 -11 33 -2l72 38l72 -38q7 -4 15 -4q10 0 18 6q16 11 13 30l-14 82l60 60q14 13 8 31zM652 378
l-60 -58l14 -82q1 -8 -6 -14q-8 -5 -16 0l-71 37l-71 -37q-9 -5 -16.5 0.5t-5.5 13.5l13 82l-59 58q-6 6 -3.5 14.5t11.5 9.5l82 12l35 73q4 8 13.5 8t13.5 -8l36 -73l81 -12q9 -1 12 -9.5t-3 -14.5z" />
    <glyph glyph-name="moment2" unicode="&#xe797;" 
d="M511 323q28 0 47.5 20t19.5 47.5t-19.5 47.5t-47.5 20t-48 -20t-20 -47.5t20 -47.5t48 -20zM509.5 833q-91.5 0 -174.5 -35.5t-143 -95.5t-95.5 -143.5t-35.5 -174.5t35.5 -174t95.5 -143t143 -96t174.5 -36t174.5 36t143 96t95.5 143t35.5 174t-35.5 174.5t-95.5 143.5
t-143 95.5t-174.5 35.5zM191 486l-9 -25q-4 -14 -19 -16q-5 0 -11 1q-9 4 -13 12.5t-1 17.5l8 25q5 14 19 16q6 1 11 -1q9 -3 13.5 -12t1.5 -18zM241 559q-7 -9 -19 -9q-8 0 -14 4q-8 6 -9.5 15.5t4.5 17.5q3 5 10 13t28.5 28.5t46 39.5t65.5 42.5t86 41.5q4 1 8 1
q17 0 22 -15q4 -9 0 -18t-13 -13q-41 -15 -78.5 -36.5t-60.5 -39t-42.5 -36t-25 -25.5t-8.5 -11zM590 291l-308 -136l136 309l322 149z" />
    <glyph glyph-name="infos" unicode="&#xe752;" 
d="M660 24q7 0 -3 -15.5t-30 -34t-47 -34t-58 -15.5q-27 0 -53 15.5t-45.5 34t-29.5 34t-6 15.5h272zM914 111q8 -10 7.5 -18.5t-5 -14.5t-10.5 -9.5t-12 -3.5h-748q-14 0 -20.5 11.5t4.5 28.5q17 31 41 69t45 81.5t36 92t15 102.5q0 51 14.5 92t37.5 71.5t53 52t63 32.5
q-16 27 -16 56q0 42 28.5 70.5t70.5 28.5t70.5 -28.5t28.5 -70.5q0 -15 -4 -28.5t-11 -25.5q35 -11 66 -32.5t54 -53t37 -72.5t14 -91q0 -52 15.5 -101.5t37 -94t45.5 -81.5t43 -63zM478 754q0 -17 11.5 -28.5t27.5 -11.5h2q17 1 28 12t11 28t-11 28.5t-28.5 11.5t-29 -11.5
t-11.5 -28.5z" />
    <glyph glyph-name="password2" unicode="&#xe620;" 
d="M512 896q-104 0 -199 -40.5t-163.5 -109t-109 -163.5t-40.5 -199t40.5 -199t109 -163.5t163.5 -109t199 -40.5t199 40.5t163.5 109t109 163.5t40.5 199t-40.5 199t-109 163.5t-163.5 109t-199 40.5v0zM717 186q0 -49 -12.5 -66t-61.5 -17h-243q-49 0 -71 17t-22 66v202
q0 7 5 12t12 5h50v115q0 58 44 101.5t102 43.5h1q57 0 97.5 -42.5t40.5 -102.5v-115h43q6 0 10.5 -5t4.5 -12v-202zM521 631h-1q-45 0 -79 -33.5t-34 -77.5v-115h218v115q0 45 -31 78t-73 33v0z" />
    <glyph glyph-name="tennis" unicode="&#xe6fd;" 
d="M519 242q-95 -9 -161 45q-79 66 -75.5 185t87.5 221q47 57 108.5 92t126.5 41q96 9 161 -46q65 -53 75 -146q37 -6 70 -21q-3 140 -100 220q-88 73 -212 61q-77 -7 -151 -47.5t-131 -109.5q-50 -61 -74 -125.5t-30 -148.5q0 -7 -2.5 -41t-3.5 -46.5t-4 -44t-6 -47.5
t-8.5 -42.5t-12 -43t-16 -35t-20.5 -32.5q-27 -33 -61 -73.5t-54 -65l-20 -24.5q-6 -7 -5 -16t8 -14l73 -61q7 -6 16 -5t14 8q51 61 132 159q14 18 35.5 34.5t44 28.5t49.5 23t49 18.5t47 14t40 10t30 6.5l15 3q1 0 4 1t5 1q-22 30 -37 63h-6v0zM241 129l-15 13
q25 55 38 131q23 -26 46 -45q23 -18 52 -37q-72 -26 -121 -62v0zM989 477q-36 57 -95 86t-126 23h-1h-1l35 -30q74 -61 79 -65q44 -36 58.5 -88.5t-4.5 -102.5q-10 -24 -26.5 -44.5t-38.5 -33.5q-30 -19 -66 -22q-71 -7 -129 41q-5 4 -75 63l-42 34q4 -58 35 -108
q35 -57 94.5 -86.5t125.5 -22.5q55 5 102 34q82 51 104 145.5t-29 176.5v0zM563 406q-3 -11 -5 -24l63 -52q75 -61 77 -63q19 -16 43.5 -25.5t54 -7.5t54.5 17q18 11 31 26.5t20 34.5q16 40 4 81.5t-47 70.5q-5 4 -79 65l-57 48q-30 -10 -55 -25q-82 -52 -104 -146v0z" />
    <glyph glyph-name="club" unicode="&#xe603;" 
d="M980 659l-10 -308q-4 -127 -97 -221t-220 -99l-511 -22q-42 -2 -71 27t-28 71l10 308q4 127 96.5 221t219.5 100l512 21q42 2 71 -26.5t28 -71.5zM181 326q19 7 43 6q14 0 21 3q21 9 14 33q-16 37 -98 13q-120 -52 -83 -188q55 -128 182 -92q85 32 72 73q-12 25 -35 18
q-6 -2 -17 -13q-19 -18 -39 -25q-69 -20 -102 59q-25 84 42 113zM334 410q-12 28 -39 20q-27 -11 -18 -40l75 -216q13 -29 40 -21l97 34q24 8 19 36q-11 26 -38 17l-68 -24zM622 539q-26 -11 -18 -40l48 -136q16 -60 -37 -84q-56 -17 -82 42l-48 136q-12 28 -39 20
q-27 -11 -18 -40l49 -139q45 -99 156 -69q104 46 77 151l-49 139q-11 28 -39 20zM941 448q-23 51 -82 44v2q31 28 16 68q-27 62 -96 43l-74 -26q-28 -12 -20 -40l76 -217q11 -26 41 -18l80 28q84 34 59 116zM856 381l-45 -16l-23 63l41 15q39 14 51 -16q10 -32 -24 -46z
M801 490l-31 -10l-20 57l30 11q31 9 42 -16q8 -30 -21 -42z" />
    <glyph glyph-name="message" unicode="&#xe642;" 
d="M927 131q-43 64 -68 111q-68 128 -68 216q0 123 -47 204v0q0 3 -15 23.5t-49 50t-70 42.5v19q0 41 -29 70t-69.5 29t-69 -29t-28.5 -70v-24l-6 -2q-76 -28 -123 -100q-53 -82 -53 -213q0 -39 -14 -87.5t-33 -88.5t-39.5 -76t-33.5 -55.5t-15 -21.5q-7 -10 -4 -21
q3 -12 13 -18q132 -66 258 -93l6 -1l2 -6q21 -68 75 -100q30 -18 65 -18t65 18q53 32 75 100l2 6l6 1q125 27 258 94q11 6 13 17q2 13 -4 23zM467 798q0 20 15.5 34t35.5 11q17 -3 28 -17t11 -31v-8l-26 1h-7h-24q-7 0 -23 -1l-10 -1v12v0zM584 -31q-29 -43 -72 -43t-73 43
l-11 17l19 -2q64 -6 128 0l20 2z" />
    <glyph glyph-name="trainee1" unicode="&#xe609;" horiz-adv-x="1043" 
d="M117 107l3 4q11 15 36 33t45 30t60 33l1 1q63 34 91 53q47 31 47 44v21q-82 81 -82 200q0 111 33 167q22 38 60 57q41 22 102.5 22t102.5 -22q38 -19 60 -57q33 -56 33 -167q0 -119 -82 -200v-21q0 -13 47 -44q28 -19 91 -53q41 -22 61.5 -34t45 -30t35.5 -33l3 -4l1 -4
q11 -34 -1 -68l-3 -9l-40 -26h-707l-40 26l-3 9q-12 34 -1 68zM853 51l10 7q3 14 0 26q-18 23 -122 80h-1l-51 28.5t-43 26t-38 28.5t-22 27.5t-10 30.5v43l8 8q74 67 74 170q0 102 -27 145q-32 50 -117.5 50t-117.5 -50q-27 -43 -27 -145q0 -103 74 -170l8 -8v-44
q0 -15 -10 -30t-22 -27t-38 -28.5t-43 -26l-51 -28.5q-104 -57 -123 -80q-3 -12 -1 -26l12 -7h678v0z" />
    <glyph glyph-name="vip2" unicode="&#xe608;" 
d="M0 384q0 -139 68.5 -257t186.5 -186.5t257 -68.5t257 68.5t186.5 186.5t68.5 257t-68.5 257t-186.5 186.5t-257 68.5t-257 -68.5t-186.5 -186.5t-68.5 -257zM785 160h-524q-20 0 -35 14.5t-15 35.5v249h623v-249q0 -21 -14.5 -35.5t-34.5 -14.5zM361 301h-92v-67h92v67z
M611 334l-37 -89h-11l-37 89h-24l61 -141h11l61 141h-24zM677 334h-25v-141h25v141zM760 333v1h-66v-141h24v58h51v4q24 11 24 38q0 15 -9.5 26.5t-23.5 13.5zM760 276h-42v33h42v-2q8 -5 8 -14t-8 -15v-2zM211 558q0 21 14.5 36t35.5 15h524q20 0 35 -15t15 -36v-33h-623
v33h-1z" />
    <glyph glyph-name="donate-ticket" unicode="&#xe65e;" 
d="M937 114h-850q-9 0 -15.5 6.5t-6.5 15.5v131l11 -1h7q49 0 83.5 34.5t34.5 83.5t-34.5 83.5t-83.5 34.5h-7l-11 -1v136q0 9 6.5 15.5t15.5 6.5h850q9 0 15.5 -6.5t6.5 -15.5v-501q0 -9 -6.5 -15.5t-15.5 -6.5zM85 246v-110q0 -2 2 -2h850q2 0 2 2v501q0 2 -2 2h-850
q-2 0 -2 -2v-115q57 -1 96.5 -41t39.5 -96.5t-39.5 -97t-96.5 -41.5zM589 245q-12 15 -43 48q-23 22 -35 50q12 -32 11.5 -54t-7 -33t-20.5 -24l-19 25q34 25 44 50t10 82v89h25v-89q0 -37 -4 -64q21 -20 58 -55zM491 328v205h103v-204h-22v173h-59v-174h-22zM611 392v119
h44q-45 66 -60 145l69 -107q1 -3 7 -11q11 -18 17 -27h23q7 10 21 35q2 2 2 3l31 -7q-10 -17 -21 -31h42v-119h-175zM622 234v137h152v-137h-28v15h-95v-15h-29zM636 486v-69h50v69h-50zM663 428q-30 62 -80 106l77 -59q1 -4 7 -10l14 -28zM651 347v-27h95v27h-95zM651 298
v-26h95v26h-95zM760 486h-49v-69h49v69zM732 428l-17 9q11 17 23 38l17 -9q-4 -7 -15 -26zM365 137h-20v22h20v-22zM365 189h-20v50h20v-50zM365 269h-20v50h20v-50zM365 349h-20v50h20v-50zM365 429h-20v50h20v-50zM365 509h-20v50h20v-50zM365 589h-20v50h20v-50z" />
    <glyph glyph-name="order2" unicode="&#xe811;" 
d="M652 337h-280q-10 0 -10 -9v0v-19q0 -9 10 -9h280q10 0 10 9v19q0 9 -10 9zM512 577v0q9 0 16 7t7 16.5t-7 16t-16 6.5v0q-10 0 -16.5 -6.5t-6.5 -16t6.5 -16.5t16.5 -7zM652 244h-280q-10 0 -10 -10v0v-18q0 -10 10 -10h280q10 0 10 10v18q0 10 -10 10zM512 896
q-139 0 -257 -68.5t-186.5 -186.5t-68.5 -257t68.5 -257t186.5 -186.5t257 -68.5t257 68.5t186.5 186.5t68.5 257t-68.5 257t-186.5 186.5t-257 68.5zM418 618h38q0 15 11 26t26 11h37q16 0 27 -11t11 -26h37v-75h-187v75zM755 188q0 -33 -24 -54t-53 -21h-332
q-24 0 -50.5 24.5t-26.5 52.5v313q0 26 22 51.5t48 25.5h42v-74h261v74h37q29 0 52.5 -22.5t23.5 -54.5v-315zM652 431h-280q-9 0 -10 -10v-18q0 -10 10 -10h280q10 0 10 10v18q0 10 -10 10z" />
    <glyph glyph-name="coach" unicode="&#xe64c;" 
d="M373 754q125 39 244 -1q45 -16 73.5 -55.5t49.5 -96.5q-94 -1 -241.5 -1h-241.5q10 29 18 48t22 43t33 39.5t43 23.5zM514 741q-1 -38 -2 -67q3 0 20.5 0.5t23.5 1.5q1 -20 2 -27q-36 7 -53 10q13 -39 74 -33q1 32 1 70q-24 4 -59 10q14 7 41 18.5t35 14.5q-28 1 -83 2z
M249 584q86 2 232.5 1.5t231.5 0.5q64 1 141 -11v-50q-9 -5 -18 -8.5t-22.5 -6t-18 -3t-23.5 -2.5t-20 -2q-28 -127 -106 -178q-53 -39 -121 -45.5t-131 21t-101 81.5q-53 65 -44 202zM296 506q17 -83 93.5 -133.5t158.5 -27.5q55 14 95 58.5t53 102.5q-117 1 -400 0z
M373 298q2 -3 7.5 -13.5t7.5 -13.5l7 1q41 -32 95 -65v-117q-10 7 -28 20.5t-20 15.5q-22 19 -33 29q-18 27 -31 53q-16 3 -47 9q-4 -8 -14 -24l-15 -24l2 -3q-9 -22 -14 -36l-4 4q-22 -51 -48 -108q303 1 530 0q-1 4 -9 30l-12 39l-20 -1l17 9q-32 81 -90 137q29 2 60 1
q14 -4 25 -15t16.5 -20t15 -27.5t11.5 -24.5q8 -29 15 -53l4 2q8 -24 11 -32l-8 -7l12 -4q12 -37 22 -65h-668q14 38 16 44q7 12 18.5 35l14.5 29q4 12 14 43q2 4 7 14.5t7 14.5l-1 3q4 5 10.5 14t10.5 14.5t10 13t12 12.5q10 5 23 7.5t29.5 4t24.5 3.5q1 5 3.5 24.5
t3.5 26.5zM637 292q1 -3 5.5 -20t5.5 -24t0 -19.5t-7 -21.5q-6 -10 -13 -19.5t-17 -20t-15 -16t-19.5 -17.5t-17 -14.5t-20 -16.5t-18.5 -15q-1 60 -1 120q64 33 117 84zM637 292z" />
    <glyph glyph-name="train2" unicode="&#xe61b;" 
d="M57 -58l37 49h81q4 10 10 22l8.5 17t6 13t4.5 10t2 7.5t1 6.5t-0.5 5.5t-1 6.5t-2.5 8l4.5 7t10.5 16t15 23t18 29t19 32t19.5 34.5t18 34.5t15 34t11.5 30q2 10 10 23t13.5 20.5t16.5 21t12 15.5q16 20 47.5 32t38.5 21q1 2 8 3q9 2 20 6t16.5 6.5t19 9.5t16.5 9
q18 9 40.5 18l32.5 13t16.5 13t4.5 24q-4 29 2 64q2 9 3.5 30.5t3.5 32.5q7 29 17 57t14 44.5t3 34.5q-1 38 15 61q1 1 11 10q7 -3 11 -9t4.5 -9.5t0.5 -14v-11.5l13 2q-2 -29 -11 -40q-24 -32 -27 -84q-1 -20 -10 -68q-2 -15 0 -74q0 -5 2.5 -12.5t4 -24t0.5 -45.5
q9 -18 24 -12l3 4q-4 28 26 38q1 0 13 9q40 4 43 5q21 5 34 -15q19 -32 19 -49q1 -13 -3 -23.5t-13 -18.5t-12.5 -10.5t-14.5 -8.5q7 -87 7 -106t-13 -58q-1 -3 -3.5 -4.5t-6.5 -4t-6 -3.5q-18 29 -25 81q-1 4 32 91q-26 14 -27 14q-17 7 -29 -1t-12 -26t2.5 -39.5t2 -38.5
t-5.5 -43q-7 -29 3 -119q7 -65 9 -77.5t7 -17.5q7 -5 12 -11.5t10 -16t8 -13.5l15 -15q1 0 3 -1t3 -2q30 -26 87 -23q26 1 34.5 -4.5t35.5 -41.5v-4q-14 -3 -455 -2.5t-453 3.5v0zM662 7q-18 24 -66.5 92.5t-86 114t-81.5 82.5q-46 -66 -52 -75q-1 -1 -6.5 -10t-9 -13
t-6.5 -7.5l-6 -7t-6.5 -10.5t-7 -13t-10 -19t-12 -24.5t-16.5 -34t-22 -42.5l-30 8q-14 -15 -18.5 -25t-6.5 -31h521q-1 5 -2.5 9t-5 7t-5.5 4.5t-8 4.5t-7 4q-12 7 -27.5 -3t-22.5 -11v0zM555 317q7 -14 8 -14q25 -29 54 -84q5 -8 29 -40.5t32 -47.5q12 -21 37 -42
q-5 21 -13 51q-14 59 -13 70v6q0 87 1 94q5 31 -16.5 36.5t-78.5 -1.5q-4 -1 -7 -2t-7.5 -4t-7 -5t-8.5 -8t-10 -9z" />
    <glyph glyph-name="fee2" unicode="&#xe632;" 
d="M512 896q-139 0 -257 -68.5t-186.5 -186.5t-68.5 -257t68.5 -257t186.5 -186.5t257 -68.5t257 68.5t186.5 186.5t68.5 257t-68.5 257t-186.5 186.5t-257 68.5zM512 -96q-98 0 -186.5 38t-153 102.5t-102.5 153t-38 186.5t38 186.5t102.5 153t153 102.5t186.5 38
t186.5 -38t153 -102.5t102.5 -153t38 -186.5t-38 -186.5t-102.5 -153t-153 -102.5t-186.5 -38zM703 91v0q-5 0 -10 4l-75 57q-5 4 -6 11t3 13t11 7t13 -4l62 -47l90 102q5 5 12 5.5t12.5 -4t6 -11.5t-4.5 -13l-101 -114q-5 -6 -13 -6v0zM597 91h-285q-16 0 -27.5 11.5
t-11.5 27.5v470q0 16 11.5 27.5t27.5 11.5h394q16 0 27.5 -11.5t11.5 -27.5v-373h-34v373q0 5 -5 5h-394q-5 0 -5 -5v-470q0 -5 5 -5h285v-34zM508 240v28q-22 3 -35 10t-23 22t-11 38l28 5q4 -23 12 -34q12 -15 29 -17v91q-18 3 -36 14q-14 7 -21 20.5t-7 30.5q0 30 21 49
q14 13 43 16v13h17v-13q24 -3 39 -15q19 -15 22 -42l-29 -5q-3 17 -11 26t-21 12v-82q21 -6 28 -9q13 -6 21.5 -14t13 -19.5t4.5 -25.5q0 -29 -19 -49t-48 -21v-29h-17zM508 489q-17 -2 -26.5 -13t-9.5 -25.5t8 -24.5t28 -16v79v0zM525 292q16 2 27 14.5t11 30.5
q0 16 -8 25.5t-30 16.5v-87z" />
    <glyph glyph-name="train" unicode="&#xe65a;" 
d="M140 384q6 1 71 1v-1q58 0 64 1q1 0 11 -1.5t14 2t5 13.5q0 32 -23 35q-78 9 -149 -1q-10 -1 -17.5 -8.5t-4.5 -18.5q6 -22 29 -22zM151 485q10 0 35 0.5t43.5 0.5t35.5 -2q67 -7 110 54h-225q-18 0 -28 -5t-10 -20q1 -28 39 -28zM385 275q29 0 13 16q-1 2 -7 8l-8 8
t-7.5 6.5t-9 6.5t-9 4.5t-11.5 3.5t-12 0q-59 -2 -182 0q-41 1 -41 -27q1 -28 43 -27h110v1h121zM619 146q-14 -11 -49 -14.5t-50 -12.5t-23 -20q-14 -22 -40.5 -64t-39.5 -62q-24 -36 10 -61q16 -13 34.5 -11.5t31.5 18.5q43 57 145 200q8 14 3 19.5t-22 7.5zM911 501
q-6 14 -16.5 20t-19.5 5.5t-23.5 -2t-21.5 -1.5q-10 1 -27 -5.5t-26.5 -9t-23.5 6.5q-22 19 -41 72q-7 19 -30.5 50.5t-29.5 40.5q37 -15 66.5 -12t47.5 14.5t30 31.5q20 31 15 67t-31 60t-62 27t-65 -16q-38 -24 -43 -59t20 -97q-32 10 -82.5 33t-64.5 28q-5 2 -14 7
t-14.5 7.5t-15 4.5t-15.5 -2q-105 -42 -174 -75q-52 -25 -28 -68q9 -16 29.5 -20.5t43.5 5.5q54 23 76 35q63 33 119 -6q19 -14 18.5 -23.5t-15.5 -23.5q-10 -9 -32.5 -29.5t-35 -32.5t-30 -30.5t-29.5 -35.5q-43 -56 6 -102q23 -22 65.5 -60t56.5 -51q6 -5 8.5 -8.5t4 -7.5
t-3.5 -7t-15 -5q-22 -4 -61.5 -13t-55.5 -13q-22 -4 -36.5 -21t-11.5 -34q5 -20 26 -31.5t44 -6.5q146 34 233 52q30 7 41.5 31.5t-6.5 48.5q-8 11 -32 41t-36 47q-16 21 -22 30t-11 22t-4.5 17.5t8 17t15.5 20t27 26.5q27 26 35 24.5t28 -35.5q1 -2 5 -8.5t5.5 -9t5.5 -7.5
t7 -7l7.5 -5t10 -4t11.5 0q59 4 169 34q16 4 22 23t-1 35z" />
    <glyph glyph-name="fee1" unicode="&#xe633;" 
d="M512 832q-185 0 -316.5 -131.5t-131.5 -316.5t131.5 -316.5t316.5 -131.5t316.5 131.5t131.5 316.5t-131.5 316.5t-316.5 131.5zM512 0q-159 0 -271.5 112.5t-112.5 271.5t112.5 271.5t271.5 112.5t271.5 -112.5t112.5 -271.5t-112.5 -271.5t-271.5 -112.5zM641 384
q13 0 22.5 9.5t9.5 22.5t-9.5 22.5t-22.5 9.5h-97v15l119 124q9 10 8.5 23t-10 22t-22.5 9t-22 -10l-102 -107l-107 108q-10 9 -23 9t-22.5 -9.5t-10 -22.5t9.5 -23l118 -118v-20h-95q-13 0 -22.5 -9.5t-9.5 -22.5t9.5 -22.5t22.5 -9.5h95v-64h-95q-13 0 -22.5 -9.5
t-9.5 -22.5t9.5 -22.5t22.5 -9.5h95v-95q0 -13 9.5 -22.5t22.5 -9.5t22.5 9.5t9.5 22.5v95h97q13 0 22.5 9.5t9.5 22.5t-9.5 22.5t-22.5 9.5h-97v64h97z" />
  </font>
</defs>
</svg>
